# xmcd CD database file
#
# Track frame offsets:
#	150
#	10574
#	30435
#	53101
#	74605
#	94117
#	110086
#	126120
#	141033
#	161328
#	181685
#	203220
#	214976
#	235012
#	256051
#	274418
#
# Disc length: 3835 seconds
#
# Revision: 0
# Processed by: cddbd v1.5.1PL2 Copyright (c) Steve Scherf et al.
# Submitted via: CDex 1.51
#
DISCID=db0ef910
DTITLE=Coleccion Milenium - Coleccion Millenium 4
DYEAR=2004
DGENRE=New Age
TTITLE0=I Will
TTITLE1=You
TTITLE2=Said I Loved You... But Lied
TTITLE3=Naquela Estaçao (Leila L.)
TTITLE4=Midnight Blue
TTITLE5=I Say a Little Prayer
TTITLE6=September
TTITLE7=It Neber Rains In Southern California
TTITLE8=Samba pa ti
TTITLE9=Lea
TTITLE10=Me and Mrs.Jones
TTITLE11=The Most Beatiful Girl
TTITLE12=Lowdown
TTITLE13=Toy Soldiers
TTITLE14=Shake You Down
TTITLE15=San Francisco (Be Sure to Wear Flowers In Your Hair)
EXTD=YEAR: 2004
EXTT0=
EXTT1=
EXTT2=
EXTT3=
EXTT4=
EXTT5=
EXTT6=
EXTT7=
EXTT8=
EXTT9=
EXTT10=
EXTT11=
EXTT12=
EXTT13=
EXTT14=
EXTT15=
PLAYORDER=
